<svg width="66" height="58" viewBox="0 0 66 58" fill="none" xmlns="http://www.w3.org/2000/svg">
<path d="M18.8377 49.7422C25.1964 49.7422 30.3512 44.5875 30.3512 38.2288C30.3512 31.8701 25.1964 26.7153 18.8377 26.7153C12.479 26.7153 7.32422 31.8701 7.32422 38.2288C7.32422 44.5875 12.479 49.7422 18.8377 49.7422Z" stroke="#274597" stroke-width="1.35612" stroke-miterlimit="10"/>
<path d="M50.1907 31.4753C54.4373 31.4753 57.8799 28.0327 57.8799 23.786C57.8799 19.5394 54.4373 16.0968 50.1907 16.0968C45.944 16.0968 42.5015 19.5394 42.5015 23.786C42.5015 28.0327 45.944 31.4753 50.1907 31.4753Z" stroke="#274597" stroke-width="1.35612" stroke-miterlimit="10"/>
<path d="M25.3061 20.0574C28.8787 20.0574 31.7748 17.1613 31.7748 13.5887C31.7748 10.0161 28.8787 7.12 25.3061 7.12C21.7335 7.12 18.8374 10.0161 18.8374 13.5887C18.8374 17.1613 21.7335 20.0574 25.3061 20.0574Z" stroke="#274597" stroke-width="1.35612" stroke-miterlimit="10"/>
<path d="M23.6928 19.7735L21.7671 27.0965" stroke="#274597" stroke-width="1.35612" stroke-miterlimit="10"/>
<path d="M31.2192 15.4861L42.8683 20.5851" stroke="#274597" stroke-width="1.35612" stroke-miterlimit="10"/>
</svg>
