<svg width="66" height="58" viewBox="0 0 66 58" fill="none" xmlns="http://www.w3.org/2000/svg">
<path d="M49.3475 44.6632H35.0781L36.6132 22.3403H47.8124L48.3962 30.8263L49.1961 42.4796L49.3475 44.6632Z" stroke="#274597" stroke-width="1.08101" stroke-miterlimit="10"/>
<path d="M54.1153 45.2254V54.6411C54.1168 54.7144 54.1036 54.7872 54.0765 54.8554C54.0494 54.9235 54.0091 54.9855 53.9577 55.0379C53.9064 55.0902 53.8451 55.1318 53.7775 55.1602C53.7099 55.1886 53.6374 55.2032 53.564 55.2032H11.2316C11.1583 55.2032 11.0857 55.1886 11.0181 55.1602C10.9505 55.1318 10.8892 55.0902 10.8379 55.0379C10.7866 54.9855 10.7462 54.9235 10.7191 54.8554C10.692 54.7872 10.6788 54.7144 10.6803 54.6411V44.9119L10.9181 44.7066L18.896 37.6043C18.9746 37.5339 19.0718 37.4876 19.1759 37.4708C19.2801 37.454 19.3869 37.4675 19.4837 37.5096C19.5804 37.5517 19.663 37.6207 19.7217 37.7084C19.7805 37.7961 19.8128 37.8988 19.8148 38.0043V43.2147C19.8166 43.3191 19.848 43.4209 19.9054 43.5081C19.9628 43.5954 20.0437 43.6645 20.1388 43.7076C20.234 43.7506 20.3393 43.7657 20.4427 43.7512C20.5461 43.7367 20.6433 43.6931 20.7229 43.6255L27.49 37.6043C27.5673 37.5326 27.664 37.485 27.768 37.4676C27.872 37.4501 27.9789 37.4634 28.0754 37.506C28.172 37.5485 28.254 37.6183 28.3113 37.7069C28.3686 37.7954 28.3988 37.8988 28.3981 38.0043V44.1552C28.398 44.2285 28.4127 44.3011 28.441 44.3687C28.4694 44.4363 28.511 44.4976 28.5633 44.5489C28.6157 44.6003 28.6778 44.6407 28.7459 44.6677C28.814 44.6948 28.8869 44.708 28.9602 44.7066H53.564C53.7048 44.7063 53.8403 44.7599 53.9428 44.8564C54.0453 44.9529 54.1071 45.0849 54.1153 45.2254Z" stroke="#274597" stroke-width="1.08101" stroke-miterlimit="10"/>
<path d="M40.1689 12.34C41.2187 12.5868 42.1279 13.2397 42.6972 14.1555C43.2666 15.0713 43.4498 16.1755 43.2066 17.2261" stroke="#274597" stroke-width="1.08101" stroke-miterlimit="10" stroke-linecap="round"/>
<path d="M40.2993 12.3838C39.2496 12.137 38.3404 11.4842 37.7711 10.5683C37.2017 9.6525 37.0185 8.54831 37.2617 7.49768" stroke="#274597" stroke-width="1.08101" stroke-miterlimit="10" stroke-linecap="round"/>
<path d="M34.2349 2.61145C34.7551 2.73228 35.2464 2.95471 35.6804 3.266C36.1144 3.57729 36.4827 3.97131 36.7639 4.42537C37.0452 4.87942 37.234 5.38458 37.3194 5.91182C37.4048 6.43906 37.3852 6.97798 37.2617 7.49761" stroke="#274597" stroke-width="1.08101" stroke-miterlimit="10" stroke-linecap="round"/>
<path d="M35.5547 12.8165C36.6045 13.0634 37.5136 13.7162 38.083 14.632C38.6523 15.5479 38.8355 16.6521 38.5923 17.7027" stroke="#274597" stroke-width="1.08101" stroke-miterlimit="10" stroke-linecap="round"/>
<path d="M35.7168 12.861C34.6671 12.6142 33.7579 11.9614 33.1886 11.0455C32.6192 10.1297 32.436 9.02548 32.6792 7.97485" stroke="#274597" stroke-width="1.08101" stroke-miterlimit="10" stroke-linecap="round"/>
<path d="M29.6416 3.07715C30.6937 3.32386 31.6048 3.97835 32.1744 4.89667C32.744 5.81499 32.9256 6.92195 32.6792 7.97413" stroke="#274597" stroke-width="1.08101" stroke-miterlimit="10" stroke-linecap="round"/>
<path d="M44.7334 11.8751C45.2537 11.996 45.7449 12.2184 46.1789 12.5297C46.613 12.841 46.9812 13.235 47.2625 13.689C47.5437 14.1431 47.7325 14.6483 47.818 15.1755C47.9034 15.7027 47.8837 16.2416 47.7602 16.7613" stroke="#274597" stroke-width="1.08101" stroke-miterlimit="10" stroke-linecap="round"/>
<path d="M44.8948 11.9085C44.3742 11.7876 43.8827 11.5652 43.4482 11.2541C43.0137 10.943 42.6448 10.5492 42.3627 10.0953C42.0806 9.64151 41.8907 9.13649 41.8039 8.60918C41.7172 8.08188 41.7352 7.54265 41.8571 7.02234" stroke="#274597" stroke-width="1.08101" stroke-miterlimit="10" stroke-linecap="round"/>
<path d="M38.8198 2.13574C39.3404 2.25668 39.8319 2.47907 40.2664 2.7902C40.7009 3.10132 41.0698 3.49506 41.3519 3.9489C41.634 4.40274 41.8239 4.90776 41.9107 5.43506C41.9974 5.96236 41.9793 6.5016 41.8575 7.02191" stroke="#274597" stroke-width="1.08101" stroke-miterlimit="10" stroke-linecap="round"/>
<path d="M28.9497 44.674H10.9185" stroke="#274597" stroke-width="1.08101" stroke-miterlimit="10" stroke-linecap="round"/>
<path d="M16.8633 49.6356H19.0037" stroke="#274597" stroke-width="1.08101" stroke-miterlimit="10"/>
<path d="M24.29 49.6356H26.4304" stroke="#274597" stroke-width="1.08101" stroke-miterlimit="10"/>
<path d="M48.3962 51.3877H44.6343V55.1496H48.3962V51.3877Z" fill="#274597"/>
<path d="M30.4409 13.3478C30.9614 13.4687 31.453 13.6911 31.8875 14.0022C32.322 14.3134 32.6908 14.7071 32.973 15.1609C33.2551 15.6148 33.445 16.1198 33.5318 16.6471C33.6185 17.1744 33.6004 17.7136 33.4786 18.2339" stroke="#274597" stroke-width="1.08101" stroke-miterlimit="10" stroke-linecap="round"/>
<path d="M30.6465 13.3465C30.1252 13.2269 29.6328 13.0053 29.1976 12.6945C28.7624 12.3837 28.3929 11.9899 28.1106 11.5357C27.8282 11.0815 27.6385 10.5759 27.5524 10.0481C27.4663 9.52031 27.4855 8.9807 27.6088 8.46033" stroke="#274597" stroke-width="1.08101" stroke-miterlimit="10" stroke-linecap="round"/>
<path d="M24.5713 3.55286C25.0918 3.67379 25.5834 3.89619 26.0179 4.20731C26.4523 4.51843 26.8212 4.91217 27.1034 5.36601C27.3855 5.81985 27.5754 6.32487 27.6621 6.85217C27.7489 7.37948 27.7308 7.91871 27.6089 8.43902" stroke="#274597" stroke-width="1.08101" stroke-miterlimit="10" stroke-linecap="round"/>
</svg>
