<svg width="66" height="58" viewBox="0 0 66 58" fill="none" xmlns="http://www.w3.org/2000/svg">
<path d="M24.1914 23.3721V5.34979H27.3422V14.0621C26.7807 14.0934 26.2525 14.3384 25.8661 14.747C25.4796 15.1555 25.2643 15.6965 25.2643 16.2589C25.2643 16.8213 25.4796 17.3623 25.8661 17.7708C26.2525 18.1794 26.7807 18.4244 27.3422 18.4557V23.3721H24.1914Z" stroke="#828282" stroke-width="0.679061" stroke-miterlimit="10"/>
<path d="M26.934 53.9233H32.4412V56.2525H19.0977V53.9233H24.598V50.3447C24.8773 50.6921 25.2308 50.9725 25.6328 51.1652C26.0347 51.358 26.4747 51.4581 26.9204 51.4583V51.4583L26.934 53.9233Z" stroke="#828282" stroke-width="0.679061" stroke-miterlimit="10"/>
<path d="M24.5985 41.6872L18.2085 39.4599L19.0777 36.9677L33.338 41.9452L32.4688 44.4374L26.9412 42.5021V45.5103C26.4955 45.5105 26.0555 45.6106 25.6535 45.8034C25.2516 45.9961 24.8981 46.2765 24.6188 46.624L24.5985 41.6872Z" stroke="#828282" stroke-width="0.679061" stroke-miterlimit="10"/>
<path d="M43.6391 36.0034C42.9045 39.3773 41.1904 42.4593 38.7116 44.8632C36.2328 47.2671 33.0997 48.8859 29.7048 49.5167C29.8298 49.1845 29.8942 48.8326 29.8949 48.4777C29.8945 47.8292 29.6849 47.1982 29.2974 46.6782C32.0472 46.1376 34.5857 44.8236 36.6149 42.8907C38.644 40.9578 40.0796 38.486 40.7531 35.7657C41.3302 36.004 41.9486 36.1263 42.573 36.1256C42.9319 36.1264 43.2897 36.0853 43.6391 36.0034V36.0034Z" stroke="#828282" stroke-width="0.679061" stroke-miterlimit="10"/>
<path d="M43.0754 26.4967C42.908 26.4864 42.7402 26.4864 42.5728 26.4967C41.7531 26.4946 40.9465 26.7027 40.2301 27.1011C39.3351 24.7296 37.8426 22.6296 35.8975 21.0044C33.9523 19.3793 31.6203 18.2841 29.1274 17.8251C29.5133 17.4129 29.7271 16.8687 29.725 16.304C29.7229 15.8098 29.5529 15.3309 29.2429 14.9459C32.3762 15.444 35.3164 16.7807 37.7517 18.8142C40.1869 20.8478 42.0265 23.5025 43.0754 26.4967V26.4967Z" stroke="#828282" stroke-width="0.679061" stroke-miterlimit="10"/>
<path d="M25.7666 2.84515V5.35768" stroke="#828282" stroke-width="0.679061" stroke-miterlimit="10"/>
<path d="M28.028 0.712341L26.7921 2.84459H24.7413L23.5122 0.712341H28.028Z" stroke="#828282" stroke-width="0.679061" stroke-miterlimit="10"/>
<path d="M26.6903 23.3736H24.8364V25.7571H26.6903V23.3736Z" stroke="#828282" stroke-width="0.679061" stroke-miterlimit="10"/>
<path d="M29.7256 16.2553C29.7274 16.5459 29.6716 16.834 29.5614 17.103C29.4512 17.3719 29.2889 17.6164 29.0837 17.8222C28.8785 18.028 28.6345 18.1912 28.3659 18.3022C28.0973 18.4132 27.8093 18.4699 27.5187 18.469C27.46 18.4757 27.4008 18.4757 27.3421 18.469C26.7806 18.4378 26.2524 18.1927 25.866 17.7842C25.4795 17.3756 25.2642 16.8346 25.2642 16.2722C25.2642 15.7099 25.4795 15.1689 25.866 14.7603C26.2524 14.3518 26.7806 14.1067 27.3421 14.0755C27.4008 14.0688 27.46 14.0688 27.5187 14.0755C27.8499 14.0753 28.177 14.1496 28.4755 14.2931C28.7741 14.4365 29.0366 14.6453 29.2435 14.9039C29.5521 15.2871 29.722 15.7633 29.7256 16.2553Z" stroke="#828282" stroke-width="0.679061" stroke-miterlimit="10"/>
<path d="M29.8953 48.4912C29.8935 49.2765 29.5812 50.0292 29.0266 50.5851C28.4719 51.1411 27.7199 51.4551 26.9346 51.4587C26.4888 51.4585 26.0488 51.3583 25.6469 51.1656C25.245 50.9728 24.8914 50.6924 24.6122 50.345C24.1785 49.8241 23.9385 49.169 23.9331 48.4912C23.9313 48.0997 24.007 47.7118 24.1558 47.3498C24.3045 46.9878 24.5234 46.6587 24.7999 46.3816C25.0763 46.1045 25.4049 45.8849 25.7666 45.7353C26.1283 45.5857 26.516 45.5092 26.9074 45.5101V45.5101C27.3646 45.5127 27.815 45.6207 28.2236 45.8256C28.6323 46.0305 28.9882 46.3269 29.2638 46.6916V46.6916C29.6634 47.2074 29.885 47.8388 29.8953 48.4912V48.4912Z" stroke="#828282" stroke-width="0.679061" stroke-miterlimit="10"/>
<path d="M47.4215 31.2907C47.4282 32.3957 47.0566 33.4697 46.3686 34.3344C45.6805 35.199 44.7174 35.8024 43.6392 36.0441C43.2898 36.1261 42.932 36.1671 42.5731 36.1663C41.9487 36.1671 41.3303 36.0448 40.7532 35.8064C39.7111 35.385 38.8481 34.6142 38.3122 33.6261C37.7763 32.638 37.6009 31.4942 37.8161 30.3909C38.0313 29.2877 38.6237 28.2936 39.4916 27.5794C40.3596 26.8651 41.449 26.475 42.5731 26.4761C42.7404 26.4658 42.9082 26.4658 43.0756 26.4761C44.2667 26.6003 45.3697 27.1608 46.1721 28.0497C46.9745 28.9387 47.4196 30.0931 47.4215 31.2907Z" stroke="#828282" stroke-width="0.679061" stroke-miterlimit="10"/>
</svg>
