<svg width="66" height="58" viewBox="0 0 66 58" fill="none" xmlns="http://www.w3.org/2000/svg">
<path d="M59.9481 29.3742L56.6216 31.7644L32.0695 49.3552L9.15852 41.5787L5.83203 40.4552L14.3796 34.3309L17.7061 35.4654L32.0695 40.334L38.0726 36.0162L38.4361 35.7628L44.1418 31.6763L48.0741 28.8565L49.6272 27.744L51.4006 26.4773L59.9481 29.3742Z" stroke="#828282" stroke-width="1.10149" stroke-linecap="round" stroke-linejoin="round"/>
<path d="M38.0726 36.0145L32.0695 40.3324L17.7061 35.4638L14.3796 34.3293L5.83203 31.4324L12.1325 26.9163L38.0726 36.0145Z" stroke="#828282" stroke-width="1.10149" stroke-linecap="round" stroke-linejoin="round"/>
<path d="M59.9481 20.342L54.683 24.1201L40.4298 19.2956L35.2197 11.9707L59.9481 20.342Z" stroke="#828282" stroke-width="1.10149" stroke-linecap="round" stroke-linejoin="round"/>
<path d="M5.83203 44.0382V43.9698" stroke="#828282" stroke-width="1.10149" stroke-linecap="round" stroke-linejoin="round"/>
<path d="M59.9481 29.3738V32.8876L32.0695 52.8686L5.83203 43.9685V40.4548L9.15852 41.5783L32.0695 49.3548L56.6216 31.7641L59.9481 29.3738Z" stroke="#828282" stroke-width="1.10149" stroke-linecap="round" stroke-linejoin="round"/>
<path d="M44.1415 31.6765L38.4578 35.763L38.0943 36.0163L12.1543 26.9181L17.9261 22.7875L20.6688 17.7757C20.8099 17.5123 21.0167 17.29 21.2692 17.1304C21.5218 16.9708 21.8114 16.8794 22.1098 16.8649C22.4081 16.8505 22.7052 16.9136 22.9719 17.0481C23.2387 17.1827 23.466 17.384 23.6318 17.6325V17.6325L24.1275 18.3485L29.8993 26.852L44.1415 31.6765Z" stroke="#828282" stroke-width="1.10149" stroke-linecap="round" stroke-linejoin="round"/>
<path d="M49.6267 27.7436L48.0736 28.8451L44.1413 31.6649L29.877 26.8293L24.1382 18.3369L23.6426 17.6209L27.1783 5.83498C27.2553 5.58847 27.409 5.373 27.6171 5.22C27.8252 5.06701 28.0767 4.9845 28.3349 4.9845C28.5932 4.9845 28.8447 5.06701 29.0527 5.22C29.2608 5.373 29.4145 5.58847 29.4915 5.83498L31.4191 11.7059L31.8046 12.8625L35.1091 22.9411L49.6267 27.7436Z" stroke="#828282" stroke-width="1.10149" stroke-linecap="round" stroke-linejoin="round"/>
<path d="M54.6827 24.1196L51.3783 26.4768L49.6049 27.7435L35.0542 22.919L31.7498 12.8404L31.3643 11.6838L31.8489 11.1441C32.018 10.9318 32.2342 10.7617 32.4803 10.6473C32.7264 10.5328 32.9957 10.4771 33.267 10.4846C33.5384 10.4921 33.8042 10.5625 34.0437 10.6903C34.2831 10.8182 34.4895 10.9999 34.6467 11.2212L35.2195 12.0253L40.4295 19.3502L54.6827 24.1196Z" stroke="#828282" stroke-width="1.10149" stroke-linecap="round" stroke-linejoin="round"/>
<path d="M54.7931 24.1645L54.6826 24.1204" stroke="#828282" stroke-width="1.10149" stroke-linecap="round" stroke-linejoin="round"/>
</svg>
