<svg width="66" height="58" viewBox="0 0 66 58" fill="none" xmlns="http://www.w3.org/2000/svg">
<path d="M54.5978 24.2065V40.2826C54.5978 42.7697 53.6098 45.155 51.8511 46.9137C50.0925 48.6724 47.7072 49.6603 45.2201 49.6603H20.7576C18.2705 49.6603 15.8852 48.6724 14.1265 46.9137C12.3678 45.155 11.3799 42.7697 11.3799 40.2826V24.2065H54.638H54.5978ZM55.9776 22.8668H10V40.2826C10 43.125 11.1291 45.8511 13.139 47.861C15.149 49.8709 17.875 51 20.7174 51H45.1531C47.9955 51 50.7215 49.8709 52.7314 47.861C54.7413 45.8511 55.8705 43.125 55.8705 40.2826V22.8668H55.9776Z" fill="#274597"/>
<path d="M45.1941 6.00021H20.7584C17.916 6.00021 15.19 7.12935 13.1801 9.13926C11.1702 11.1492 10.041 13.8752 10.041 16.7176V22.8265H55.9785V16.7176C55.9785 15.3045 55.6991 13.9054 55.1563 12.6007C54.6135 11.296 53.8181 10.1115 52.8158 9.11546C51.8135 8.11938 50.6241 7.33135 49.316 6.7967C48.008 6.26206 46.6072 5.99138 45.1941 6.00021ZM33.5255 15.8736C33.3502 16.0454 33.1145 16.1416 32.8691 16.1416H27.4166C27.1679 16.1416 26.9293 16.0428 26.7535 15.8669C26.5776 15.691 26.4788 15.4525 26.4788 15.2038C26.4798 15.0812 26.5052 14.96 26.5535 14.8473C26.6018 14.7346 26.6721 14.6326 26.7601 14.5473C26.937 14.3779 27.1717 14.2821 27.4166 14.2794H32.8691C33.0555 14.2754 33.2389 14.328 33.3949 14.4301C33.551 14.5322 33.6725 14.6792 33.7435 14.8516C33.8145 15.0241 33.8317 15.2139 33.7928 15.3963C33.7539 15.5787 33.6607 15.7451 33.5255 15.8736ZM42.0593 16.7176C42.0593 16.9369 42.0159 17.154 41.9315 17.3565C41.8472 17.5589 41.7236 17.7426 41.568 17.897C41.4123 18.0515 41.2276 18.1735 41.0245 18.2562C40.8214 18.3389 40.6039 18.3806 40.3847 18.3788H36.8345C36.6153 18.3806 36.3978 18.3389 36.1947 18.2562C35.9916 18.1735 35.8069 18.0515 35.6512 17.897C35.4955 17.7426 35.372 17.5589 35.2877 17.3565C35.2033 17.154 35.1599 16.9369 35.1599 16.7176V13.7033C35.1599 13.2592 35.3364 12.8332 35.6504 12.5192C35.9645 12.2051 36.3904 12.0288 36.8345 12.0288H40.4249C40.869 12.0288 41.2949 12.2051 41.609 12.5192C41.923 12.8332 42.0994 13.2592 42.0994 13.7033L42.0593 16.7176ZM50.4456 16.4363C50.5977 16.6186 50.6761 16.8513 50.6654 17.0884C50.6546 17.3256 50.5556 17.5502 50.3877 17.718C50.2198 17.8859 49.9952 17.9849 49.7581 17.9956C49.5209 18.0064 49.2883 17.928 49.106 17.7759L47.8869 16.5569L46.6543 17.7759C46.472 17.928 46.2394 18.0064 46.0022 17.9956C45.7651 17.9849 45.5405 17.8859 45.3726 17.718C45.2047 17.5502 45.1057 17.3256 45.095 17.0884C45.0842 16.8513 45.1626 16.6186 45.3147 16.4363L46.5338 15.2038L45.3147 13.9847C45.1626 13.8024 45.0842 13.5697 45.095 13.3325C45.1057 13.0954 45.2047 12.8708 45.3726 12.7029C45.5405 12.535 45.7651 12.436 46.0022 12.4253C46.2394 12.4146 46.472 12.493 46.6543 12.645L47.8869 13.8641L49.106 12.645C49.2841 12.4683 49.5249 12.3691 49.7758 12.3691C50.0267 12.3691 50.2675 12.4683 50.4456 12.645C50.6224 12.8232 50.7215 13.0639 50.7215 13.3149C50.7215 13.5658 50.6224 13.8066 50.4456 13.9847L49.2265 15.2038L50.4456 16.4363Z" fill="#274597"/>
</svg>
