<svg width="66" height="58" viewBox="0 0 66 58" fill="none" xmlns="http://www.w3.org/2000/svg">
<path d="M7.0933 13.1377L9.35684 13.2801H10.6232H12.3485L14.7545 13.1377L22.6689 35.2981L30.5833 13.1377L32.7677 13.2801H34.0657H35.8227L38.1495 13.1377V14.4198C37.2677 14.3455 36.382 14.5095 35.5852 14.8947C35.2053 15.1955 35.0154 16.0186 35.0154 17.3799V36.6594C35.0154 38.1157 35.1895 39.0021 35.5536 39.3186C36.35 39.7564 37.2618 39.9388 38.1654 39.841V41.0757L34.9996 40.9332H33.4167H31.5331C30.7574 40.9332 29.6653 41.0123 28.2407 41.0757V39.8252C28.6832 40.0011 29.1675 40.0436 29.6339 39.9473C30.1002 39.8511 30.5282 39.6204 30.8649 39.2837C31.2016 38.9469 31.4324 38.519 31.5286 38.0526C31.6248 37.5862 31.5824 37.1019 31.4064 36.6594V14.8947H31.264L22.0357 40.7432L21.181 40.5216L12.0794 14.8947H11.7628L11.6045 35.4722V36.0263C11.4642 37.1186 11.6748 38.2273 12.206 39.192C12.9365 39.7372 13.8508 39.9757 14.7545 39.8568V41.1073C13.6464 41.1073 12.7917 40.9807 12.1902 40.9648H10.7181H9.26187C8.66038 40.9648 7.77395 41.044 6.63428 41.1073V39.8568C8.96112 39.8568 10.1324 38.4639 10.1641 35.7255V35.583L10.354 16.7467V16.5251C10.354 15.6862 10.1799 15.1322 9.81587 14.9422C8.99574 14.5992 8.10674 14.4529 7.21994 14.5148L7.0933 13.1377Z" fill="#274597"/>
<path d="M58.9645 22.2056C59.042 22.3357 59.1057 22.4737 59.1544 22.6171C59.1728 22.7484 59.1728 22.8816 59.1544 23.0129C59.1645 23.1724 59.1385 23.3321 59.0782 23.4801C59.0179 23.6281 58.9249 23.7606 58.8062 23.8676C58.5215 24.086 58.1669 24.193 57.809 24.1683C57.4263 24.1433 57.0536 24.0353 56.7168 23.8518C56.4607 23.7037 56.183 23.5969 55.8937 23.5352C55.6558 23.5606 55.4358 23.6734 55.2764 23.8518C54.981 24.1188 54.7204 24.4219 54.5007 24.754C54.8875 25.2175 55.1732 25.7566 55.3397 26.3369C55.5416 27.0524 55.6376 27.7937 55.6246 28.5371C55.7194 30.2061 55.1504 31.8448 54.0417 33.0958C52.8178 34.2701 51.1947 34.9374 49.4988 34.9636L48.1217 35.0428C45.779 35.1219 44.6235 35.7392 44.6235 36.9264C44.6235 38.1136 46.6496 38.8259 50.7176 38.9525H51.6674C53.5975 38.8604 55.5196 39.2579 57.255 40.108C57.7882 40.481 58.2148 40.9868 58.4925 41.5754C58.7701 42.164 58.8892 42.815 58.8378 43.4637C58.8174 44.3998 58.5486 45.3137 58.0592 46.1118C57.5697 46.91 56.877 47.5639 56.052 48.0066C53.8651 49.2758 51.3601 49.8911 48.834 49.7795C46.9446 49.8725 45.0675 49.4279 43.4205 48.4973C42.8175 48.1603 42.315 47.669 41.9645 47.0738C41.614 46.4785 41.4282 45.8007 41.4261 45.1099C41.4085 44.2658 41.6762 43.4404 42.1859 42.7672C42.7957 42.0511 43.5812 41.5056 44.4652 41.1844C43.8946 40.9277 43.4028 40.5234 43.0407 40.013C42.7197 39.4956 42.5549 38.8965 42.5658 38.2877C42.5482 37.4384 42.8282 36.6096 43.3572 35.945C43.9782 35.2198 44.7814 34.6733 45.6841 34.3621C44.5588 34.001 43.5848 33.2774 42.914 32.3044C42.2457 31.2857 41.9034 30.0876 41.9326 28.8695C41.9016 27.9894 42.0545 27.1125 42.3815 26.2949C42.7086 25.4772 43.2027 24.7368 43.8321 24.1209C44.4836 23.5096 45.2501 23.0339 46.0871 22.7214C46.924 22.4089 47.8147 22.2659 48.7074 22.3005C49.7388 22.2852 50.7657 22.4404 51.7465 22.7596C52.5697 23.0393 53.3172 23.5051 53.9309 24.1209C54.4036 23.4498 54.9999 22.875 55.6879 22.4272C56.2548 22.0808 56.9072 21.8999 57.5715 21.9048C57.8059 21.9053 58.0395 21.9319 58.268 21.9839C58.5067 22.0354 58.74 22.1096 58.9645 22.2056ZM45.6366 41.6909C44.9214 41.9216 44.2961 42.3699 43.8479 42.973C43.4333 43.5372 43.2113 44.2199 43.2148 44.92C43.1984 45.4912 43.3368 46.0561 43.6155 46.555C43.8942 47.0538 44.3027 47.4679 44.7977 47.7534C46.1617 48.5014 47.7081 48.8524 49.2614 48.7664C51.0621 48.8434 52.8503 48.4333 54.4374 47.5792C55.009 47.3201 55.4978 46.908 55.8498 46.3884C56.2018 45.8688 56.4032 45.262 56.4319 44.6351C56.4319 43.163 54.5957 42.324 50.9234 42.1341C48.7549 41.9442 46.9979 41.8017 45.6366 41.6276V41.6909ZM48.8024 23.3136C48.234 23.2761 47.6651 23.3793 47.1461 23.6139C46.627 23.8486 46.1738 24.2075 45.8265 24.659C45.1726 25.8755 44.8303 27.2351 44.8303 28.6162C44.8303 29.9974 45.1726 31.357 45.8265 32.5735C46.1964 32.9942 46.6518 33.3312 47.1622 33.5621C47.6726 33.793 48.2263 33.9124 48.7865 33.9124C49.3467 33.9124 49.9005 33.793 50.4109 33.5621C50.9213 33.3312 51.3766 32.9942 51.7465 32.5735C52.4991 31.4027 52.8543 30.0206 52.7596 28.6321C52.8488 27.2391 52.4941 25.8536 51.7465 24.6749C51.4179 24.2215 50.984 23.8549 50.4821 23.6067C49.9802 23.3585 49.4254 23.2362 48.8657 23.2503L48.8024 23.3136Z" fill="#274597"/>
<path d="M6.47656 3.56091H14.4543" stroke="#274597" stroke-width="1.73262" stroke-linecap="round" stroke-linejoin="round"/>
<path d="M6.47607 50.4468H35.3004" stroke="#274597" stroke-width="1.73262" stroke-linecap="round" stroke-linejoin="round"/>
<path d="M6.47607 54.4506H20.8962" stroke="#274597" stroke-width="1.73262" stroke-linecap="round" stroke-linejoin="round"/>
<path d="M57.667 11.9045V4.21167" stroke="#274597" stroke-width="1.73262" stroke-linecap="round" stroke-linejoin="round"/>
</svg>
