<svg width="66" height="58" viewBox="0 0 66 58" fill="none" xmlns="http://www.w3.org/2000/svg">
<path d="M49.3475 44.6632H35.0781L36.6132 22.3403H47.8124L48.3962 30.8262L49.1961 42.4795L49.3475 44.6632Z" stroke="#828282" stroke-width="1.08101" stroke-miterlimit="10"/>
<path d="M54.1153 45.2253V54.6409C54.1168 54.7142 54.1036 54.7871 54.0765 54.8552C54.0494 54.9234 54.0091 54.9854 53.9577 55.0378C53.9064 55.0901 53.8451 55.1317 53.7775 55.1601C53.7099 55.1884 53.6374 55.2031 53.564 55.203H11.2316C11.1583 55.2031 11.0857 55.1884 11.0181 55.1601C10.9505 55.1317 10.8892 55.0901 10.8379 55.0378C10.7866 54.9854 10.7462 54.9234 10.7191 54.8552C10.692 54.7871 10.6788 54.7142 10.6803 54.6409V44.9118L10.9181 44.7064L18.896 37.6042C18.9746 37.5338 19.0718 37.4875 19.1759 37.4707C19.2801 37.4539 19.3869 37.4674 19.4837 37.5095C19.5804 37.5516 19.663 37.6206 19.7217 37.7083C19.7805 37.796 19.8128 37.8986 19.8148 38.0041V43.2146C19.8166 43.319 19.848 43.4208 19.9054 43.508C19.9628 43.5953 20.0437 43.6644 20.1388 43.7074C20.234 43.7505 20.3393 43.7656 20.4427 43.7511C20.5461 43.7366 20.6433 43.693 20.7229 43.6254L27.49 37.6042C27.5673 37.5324 27.664 37.4849 27.768 37.4674C27.872 37.45 27.9789 37.4633 28.0754 37.5058C28.172 37.5484 28.254 37.6182 28.3113 37.7067C28.3686 37.7953 28.3988 37.8987 28.3981 38.0041V44.1551C28.398 44.2284 28.4127 44.301 28.441 44.3686C28.4694 44.4362 28.511 44.4975 28.5633 44.5488C28.6157 44.6001 28.6778 44.6405 28.7459 44.6676C28.814 44.6947 28.8869 44.7079 28.9602 44.7064H53.564C53.7048 44.7062 53.8403 44.7598 53.9428 44.8563C54.0453 44.9527 54.1071 45.0848 54.1153 45.2253Z" stroke="#828282" stroke-width="1.08101" stroke-miterlimit="10"/>
<path d="M40.1689 12.3398C41.2187 12.5867 42.1279 13.2395 42.6972 14.1554C43.2666 15.0712 43.4498 16.1754 43.2066 17.226" stroke="#828282" stroke-width="1.08101" stroke-miterlimit="10" stroke-linecap="round"/>
<path d="M40.2993 12.3838C39.2496 12.137 38.3404 11.4842 37.7711 10.5683C37.2017 9.6525 37.0185 8.54831 37.2617 7.49768" stroke="#828282" stroke-width="1.08101" stroke-miterlimit="10" stroke-linecap="round"/>
<path d="M34.2349 2.61139C34.7551 2.73222 35.2464 2.95465 35.6804 3.26594C36.1144 3.57723 36.4827 3.97125 36.7639 4.4253C37.0452 4.87936 37.234 5.38452 37.3194 5.91176C37.4048 6.439 37.3852 6.97792 37.2617 7.49755" stroke="#828282" stroke-width="1.08101" stroke-miterlimit="10" stroke-linecap="round"/>
<path d="M35.5547 12.8163C36.6045 13.0632 37.5136 13.716 38.083 14.6318C38.6523 15.5477 38.8355 16.6519 38.5923 17.7025" stroke="#828282" stroke-width="1.08101" stroke-miterlimit="10" stroke-linecap="round"/>
<path d="M35.7168 12.8609C34.6671 12.6141 33.7579 11.9612 33.1886 11.0454C32.6192 10.1296 32.436 9.02536 32.6792 7.97473" stroke="#828282" stroke-width="1.08101" stroke-miterlimit="10" stroke-linecap="round"/>
<path d="M29.6416 3.07703C30.6937 3.32374 31.6048 3.97823 32.1744 4.89655C32.744 5.81487 32.9256 6.92182 32.6792 7.97401" stroke="#828282" stroke-width="1.08101" stroke-miterlimit="10" stroke-linecap="round"/>
<path d="M44.7334 11.875C45.2537 11.9958 45.7449 12.2183 46.1789 12.5296C46.613 12.8408 46.9812 13.2349 47.2625 13.6889C47.5437 14.143 47.7325 14.6481 47.818 15.1754C47.9034 15.7026 47.8837 16.2415 47.7602 16.7612" stroke="#828282" stroke-width="1.08101" stroke-miterlimit="10" stroke-linecap="round"/>
<path d="M44.8948 11.9084C44.3742 11.7875 43.8827 11.5651 43.4482 11.254C43.0137 10.9428 42.6448 10.5491 42.3627 10.0952C42.0806 9.64138 41.8907 9.13637 41.8039 8.60906C41.7172 8.08176 41.7352 7.54252 41.8571 7.02222" stroke="#828282" stroke-width="1.08101" stroke-miterlimit="10" stroke-linecap="round"/>
<path d="M38.8198 2.13562C39.3404 2.25656 39.8319 2.47895 40.2664 2.79007C40.7009 3.1012 41.0698 3.49494 41.3519 3.94878C41.634 4.40262 41.8239 4.90763 41.9107 5.43494C41.9974 5.96224 41.9793 6.50148 41.8575 7.02178" stroke="#828282" stroke-width="1.08101" stroke-miterlimit="10" stroke-linecap="round"/>
<path d="M28.9497 44.6739H10.9185" stroke="#828282" stroke-width="1.08101" stroke-miterlimit="10" stroke-linecap="round"/>
<path d="M16.8633 49.6356H19.0037" stroke="#828282" stroke-width="1.08101" stroke-miterlimit="10"/>
<path d="M24.29 49.6356H26.4304" stroke="#828282" stroke-width="1.08101" stroke-miterlimit="10"/>
<path d="M48.3962 51.3877H44.6343V55.1496H48.3962V51.3877Z" fill="#828282"/>
<path d="M30.4409 13.3478C30.9614 13.4687 31.453 13.6911 31.8875 14.0022C32.322 14.3134 32.6908 14.7071 32.973 15.1609C33.2551 15.6148 33.445 16.1198 33.5318 16.6471C33.6185 17.1744 33.6004 17.7136 33.4786 18.2339" stroke="#828282" stroke-width="1.08101" stroke-miterlimit="10" stroke-linecap="round"/>
<path d="M30.6465 13.3464C30.1252 13.2268 29.6328 13.0052 29.1976 12.6944C28.7624 12.3836 28.3929 11.9898 28.1106 11.5356C27.8282 11.0815 27.6385 10.5759 27.5524 10.0481C27.4663 9.52025 27.4855 8.98064 27.6088 8.46027" stroke="#828282" stroke-width="1.08101" stroke-miterlimit="10" stroke-linecap="round"/>
<path d="M24.5713 3.5528C25.0918 3.67373 25.5834 3.89612 26.0179 4.20725C26.4523 4.51837 26.8212 4.91211 27.1034 5.36595C27.3855 5.81979 27.5754 6.32481 27.6621 6.85211C27.7489 7.37942 27.7308 7.91865 27.6089 8.43896" stroke="#828282" stroke-width="1.08101" stroke-miterlimit="10" stroke-linecap="round"/>
</svg>
