<svg width="66" height="58" viewBox="0 0 66 58" fill="none" xmlns="http://www.w3.org/2000/svg">
<path d="M39.7797 25.2376H51.1489V10.133H28.5107" stroke="#274597" stroke-width="1.2535" stroke-miterlimit="10"/>
<path d="M25.1501 32.6713H39.3647V18.4566H25.1501V32.6713Z" stroke="#274597" stroke-width="1.2535" stroke-miterlimit="10"/>
<path d="M25.2515 24.8378H13.8823V45.0191H18.8712" stroke="#274597" stroke-width="1.2535" stroke-miterlimit="10"/>
<path d="M25.841 52.239C29.6901 52.239 32.8105 49.1187 32.8105 45.2695C32.8105 41.4204 29.6901 38.3001 25.841 38.3001C21.9919 38.3001 18.8716 41.4204 18.8716 45.2695C18.8716 49.1187 21.9919 52.239 25.841 52.239Z" stroke="#274597" stroke-width="1.2535" stroke-miterlimit="10"/>
<path d="M32.8101 45.0421H38.714" stroke="#274597" stroke-width="1.2535" stroke-miterlimit="10"/>
<path d="M13.8703 14.1068L28.085 14.1068V5.6958L13.8703 5.6958L13.8703 14.1068Z" stroke="#274597" stroke-width="1.2535" stroke-miterlimit="10"/>
<path d="M51.3366 37.7224L51.3616 45.0302L51.3867 52.3256L45.044 48.703L38.7139 45.0678L45.019 41.3951L51.3366 37.7224Z" stroke="#274597" stroke-width="1.2535" stroke-miterlimit="10"/>
<path d="M28.8735 28.9358H35.6299V22.1795H28.8735V28.9358Z" fill="#274597"/>
</svg>
