<svg width="48" height="60" viewBox="0 0 48 60" fill="none" xmlns="http://www.w3.org/2000/svg">
<path d="M43.1328 11.2953C43.876 11.297 44.5882 11.5935 45.1131 12.1196C45.638 12.6458 45.9328 13.3586 45.9328 14.1018V31.5341L45.8999 51.259L42.3225 56.0947L20.6277 58.2952H14.4744C14.1067 58.2952 13.7426 58.2227 13.4029 58.082C13.0632 57.9413 12.7545 57.7351 12.4945 57.4751C12.2345 57.2151 12.0283 56.9064 11.8875 56.5667C11.7468 56.227 11.6744 55.8629 11.6744 55.4952V14.1018C11.6722 13.6599 11.7761 13.2238 11.9775 12.8303C12.2106 12.3683 12.5675 11.9801 13.0084 11.709C13.4493 11.438 13.9568 11.2947 14.4744 11.2953H43.1328ZM43.1328 9.97766H14.4744C13.7135 9.97784 12.9676 10.1892 12.3197 10.5881C11.6719 10.9871 11.1474 11.558 10.8048 12.2374C10.5079 12.8139 10.3543 13.4534 10.3568 14.1018V55.4952C10.3585 56.5867 10.7929 57.633 11.5647 58.4049C12.3365 59.1767 13.3829 59.6111 14.4744 59.6128H20.687L43.0274 57.3465L47.2109 51.6938L47.2438 31.5341V14.1018C47.2438 13.0103 46.8111 11.9633 46.0406 11.1903C45.27 10.4172 44.2243 9.98115 43.1328 9.97766Z" fill="white"/>
<path d="M42.54 15.9267H16.0886C15.5355 15.9267 15.0872 16.375 15.0872 16.9281C15.0872 17.4812 15.5355 17.9295 16.0886 17.9295H42.54C43.093 17.9295 43.5414 17.4812 43.5414 16.9281C43.5414 16.375 43.093 15.9267 42.54 15.9267Z" fill="white"/>
<path d="M42.54 21.0259H16.0886C15.5355 21.0259 15.0872 21.4742 15.0872 22.0273C15.0872 22.5803 15.5355 23.0287 16.0886 23.0287H42.54C43.093 23.0287 43.5414 22.5803 43.5414 22.0273C43.5414 21.4742 43.093 21.0259 42.54 21.0259Z" fill="white"/>
<path d="M42.54 26.1185H16.0886C15.5355 26.1185 15.0872 26.5669 15.0872 27.1199C15.0872 27.673 15.5355 28.1213 16.0886 28.1213H42.54C43.093 28.1213 43.5414 27.673 43.5414 27.1199C43.5414 26.5669 43.093 26.1185 42.54 26.1185Z" fill="white"/>
<path d="M42.54 31.2178H16.0886C15.5355 31.2178 15.0872 31.6662 15.0872 32.2192C15.0872 32.7723 15.5355 33.2206 16.0886 33.2206H42.54C43.093 33.2206 43.5414 32.7723 43.5414 32.2192C43.5414 31.6662 43.093 31.2178 42.54 31.2178Z" fill="white"/>
<path d="M34.9966 36.2906H16.0886C15.5355 36.2906 15.0872 36.7389 15.0872 37.292C15.0872 37.845 15.5355 38.2934 16.0886 38.2934H34.9966C35.5496 38.2934 35.998 37.845 35.998 37.292C35.998 36.7389 35.5496 36.2906 34.9966 36.2906Z" fill="white"/>
<path d="M27.1501 41.3766H16.0886C15.5355 41.3766 15.0872 41.825 15.0872 42.378C15.0872 42.9311 15.5355 43.3794 16.0886 43.3794H27.1501C27.7031 43.3794 28.1515 42.9311 28.1515 42.378C28.1515 41.825 27.7031 41.3766 27.1501 41.3766Z" fill="white"/>
<path d="M20.6212 46.4431H16.0886C15.5355 46.4431 15.0872 46.8915 15.0872 47.4445C15.0872 47.9976 15.5355 48.4459 16.0886 48.4459H20.6212C21.1743 48.4459 21.6226 47.9976 21.6226 47.4445C21.6226 46.8915 21.1743 46.4431 20.6212 46.4431Z" fill="white"/>
<path d="M47.2374 31.5339V55.4885C47.2382 56.0292 47.1326 56.5648 46.9265 57.0647C46.7203 57.5646 46.4178 58.019 46.036 58.402C45.6543 58.7849 45.2009 59.089 44.7016 59.2967C44.2024 59.5044 43.6671 59.6118 43.1264 59.6126H20.6871L23.0984 57.0564L25.9774 54.0061L28.2965 56.4503H38.1787L43.66 50.6593L45.1489 49.0848L41.565 45.29L40.5965 44.2754L40.0695 43.7088L34.5816 49.5064L36.0705 51.0744L40.0695 46.858L42.1645 49.0848L37.3025 54.2235H29.1727L27.4795 52.425L39.4436 39.7757L43.7852 44.3874L45.2807 42.8063L40.9325 38.1946L46.651 32.1532L47.2374 31.5339Z" fill="white"/>
<path d="M47.244 31.5273V52.985H47.2374V31.5339L47.244 31.5273Z" fill="#1E4696"/>
<path d="M38.1852 10.2675V5.31321C38.1852 4.2223 37.7523 3.17597 36.9815 2.40396C36.2108 1.63195 35.1651 1.19736 34.0742 1.19562H5.41575C4.32423 1.19736 3.27791 1.63174 2.50609 2.40356C1.73427 3.17538 1.2999 4.22169 1.29816 5.31321V46.7066C1.2999 47.7981 1.73427 48.8444 2.50609 49.6162C3.27791 50.388 4.32423 50.8224 5.41575 50.8242H10.6138" stroke="white" stroke-width="0.705476" stroke-miterlimit="10" stroke-linecap="round"/>
<path d="M33.4879 7.14459H7.03643C6.48338 7.14459 6.03503 7.59293 6.03503 8.14599C6.03503 8.69905 6.48338 9.14739 7.03643 9.14739H33.4879C34.0409 9.14739 34.4893 8.69905 34.4893 8.14599C34.4893 7.59293 34.0409 7.14459 33.4879 7.14459Z" fill="white"/>
<path d="M10.8049 12.2373C10.5081 12.8138 10.3544 13.4533 10.3569 14.1018V14.2401H7.02991C6.79552 14.2017 6.58241 14.0812 6.42863 13.9002C6.27485 13.7192 6.19043 13.4894 6.19043 13.2519C6.19043 13.0144 6.27485 12.7846 6.42863 12.6036C6.58241 12.4225 6.79552 12.3021 7.02991 12.2637L10.8049 12.2373Z" fill="white"/>
<path d="M10.3569 17.3234V19.2998H7.02991C6.79552 19.2614 6.5824 19.1409 6.42863 18.9599C6.27485 18.7789 6.19043 18.5491 6.19043 18.3116C6.19043 18.0741 6.27485 17.8443 6.42863 17.6633C6.5824 17.4822 6.79552 17.3618 7.02991 17.3234H10.3569Z" fill="white"/>
<path d="M10.3569 22.4291V24.4056H7.02991C6.79552 24.3672 6.5824 24.2467 6.42863 24.0657C6.27485 23.8847 6.19043 23.6549 6.19043 23.4174C6.19043 23.1798 6.27485 22.9501 6.42863 22.769C6.5824 22.588 6.79552 22.4675 7.02991 22.4291H10.3569Z" fill="white"/>
<path d="M10.3569 27.5087V29.4852H7.02991C6.79552 29.4468 6.5824 29.3263 6.42863 29.1453C6.27485 28.9643 6.19043 28.7345 6.19043 28.497C6.19043 28.2594 6.27485 28.0296 6.42863 27.8486C6.5824 27.6676 6.79552 27.5471 7.02991 27.5087H10.3569Z" fill="white"/>
<path d="M10.3569 32.5948V34.5712H7.02991C6.79552 34.5328 6.5824 34.4124 6.42863 34.2313C6.27485 34.0503 6.19043 33.8205 6.19043 33.583C6.19043 33.3455 6.27485 33.1157 6.42863 32.9347C6.5824 32.7537 6.79552 32.6332 7.02991 32.5948H10.3569Z" fill="white"/>
<path d="M10.3569 37.6544V39.6309H7.02988C6.80158 39.585 6.59623 39.4615 6.44869 39.2813C6.30114 39.1012 6.22052 38.8755 6.22052 38.6426C6.22052 38.4098 6.30114 38.1841 6.44869 38.004C6.59623 37.8238 6.80158 37.7003 7.02988 37.6544H10.3569Z" fill="white"/>
</svg>
