<svg width="139" height="52" viewBox="0 0 139 52" fill="none" xmlns="http://www.w3.org/2000/svg">
<g clip-path="url(#clip0_499_4300)">
<path d="M139 7.92617V46.1798C138.999 47.7232 138.382 49.2031 137.285 50.2944C136.188 51.3858 134.699 51.9992 133.148 51.9999H0V46.3278L3.7204 42.4003L0 38.4869V5.08867C0.00218929 4.75538 0.10457 4.43037 0.29398 4.15541C0.483389 3.88045 0.751168 3.66812 1.06289 3.54571C1.37461 3.4233 1.71602 3.39641 2.04323 3.4685C2.37044 3.54059 2.66849 3.70837 2.89905 3.95025L12.9155 14.4806L5.27439 22.5264L7.90443 25.2842L15.5513 17.2356L36.646 39.4176L33.6611 42.5625H19.3518L10.7663 33.5548L14.4638 29.65L21.5011 37.0497L24.1225 34.3004L14.4552 24.1287L13.5251 25.1134L11.8337 26.8893L5.51478 33.5462L8.13624 36.3126L17.7864 46.4644H35.195L39.2703 42.1953L44.3043 47.4662C45.1959 48.4037 46.2705 49.1505 47.4623 49.6609C48.6541 50.1713 49.9381 50.4346 51.2357 50.4346H132.876C134.085 50.4346 135.244 49.957 136.099 49.1067C136.954 48.2565 137.435 47.1033 137.435 45.9009V8.57222C137.435 6.77523 136.717 5.05176 135.44 3.78057C134.163 2.50937 132.43 1.79446 130.623 1.79295H62.8119C62.7093 1.79295 62.6077 1.77286 62.5129 1.73381C62.4181 1.69476 62.332 1.63753 62.2594 1.56538C62.1869 1.49323 62.1293 1.40758 62.09 1.31332C62.0508 1.21905 62.0306 1.11802 62.0306 1.01598C62.0306 0.913951 62.0508 0.812918 62.09 0.718652C62.1293 0.624385 62.1869 0.538731 62.2594 0.466583C62.332 0.394435 62.4181 0.337204 62.5129 0.298158C62.6077 0.259111 62.7093 0.239014 62.8119 0.239014H131.27C132.285 0.23864 133.291 0.437219 134.229 0.823402C135.167 1.20959 136.019 1.7758 136.737 2.4897C137.455 3.20359 138.024 4.05116 138.412 4.98398C138.801 5.9168 139 6.91657 139 7.92617Z" fill="#274597"/>
<path d="M32.2502 25.5176H35.8562C35.8562 26.4198 36.5545 26.8581 37.3501 26.8581C38.0827 26.8581 38.781 26.471 38.781 25.7823C38.781 24.9911 37.7936 24.7606 36.5859 24.4703C34.7544 24.0178 32.4134 23.4571 32.4134 20.5883C32.4134 18.1037 34.2478 16.6807 37.2385 16.6807C40.2777 16.6807 42.0235 18.2346 42.0235 20.7989H38.5177C38.5177 20.002 37.9224 19.6292 37.1984 19.6292C36.5745 19.6292 35.9764 19.8967 35.9764 20.483C35.9764 21.1973 36.9322 21.4336 38.1256 21.7324C39.9915 22.2134 42.4327 22.831 42.4327 25.7168C42.4327 28.4718 40.3064 29.9005 37.3615 29.9005C34.2564 29.8977 32.2502 28.2669 32.2502 25.5176Z" fill="#1D1D1B"/>
<path d="M52.5294 26.5763V29.5903H44.2615V16.9795H52.3748V19.9821H47.7415V21.8519H51.9055V24.698H47.7415V26.5849L52.5294 26.5763Z" fill="#1D1D1B"/>
<path d="M59.2947 25.7311H58.0269V29.5903H54.5354V16.9795H60.0301C62.7632 16.9795 64.7436 18.8066 64.7436 21.4421C64.7582 22.1591 64.5802 22.867 64.2281 23.4928C63.876 24.1186 63.3624 24.6398 62.7403 25.0025L65.2588 29.5903H61.3666L59.2947 25.7311ZM58.0269 22.8053H59.6238C60.5997 22.8053 61.1606 22.2191 61.1606 21.4307C61.1606 20.6423 60.5882 20.0674 59.6238 20.0674H58.0269V22.8053Z" fill="#1D1D1B"/>
<path d="M78.0941 16.9795L73.229 29.5903H69.9894L65.0298 16.9795H69.0163L71.592 24.8175L74.119 16.9795H78.0941Z" fill="#1D1D1B"/>
<path d="M79.3706 16.9795H82.9107V29.5903H79.3706V16.9795Z" fill="#1D1D1B"/>
<path d="M91.4474 29.9091C87.5896 29.9091 84.7078 27.063 84.7078 23.2949C84.7078 19.5267 87.5896 16.6608 91.4474 16.6608C94.77 16.6608 97.3457 18.8437 97.8608 22.0398H94.3207C94.137 21.426 93.7595 20.8874 93.2441 20.5035C92.7287 20.1196 92.1028 19.9108 91.4589 19.9081C89.6645 19.9081 88.3452 21.3311 88.3452 23.2949C88.3452 25.2587 89.6645 26.6561 91.4589 26.6561C92.8669 26.6561 93.9716 25.7425 94.3207 24.3422H97.8952C97.4115 27.6579 94.8215 29.9091 91.4445 29.9091H91.4474Z" fill="#1D1D1B"/>
<path d="M107.837 26.5763V29.5903H99.5693V16.9795H107.683V19.9821H103.046V21.8519H107.213V24.698H103.046V26.5849L107.837 26.5763Z" fill="#1D1D1B"/>
<path d="M26.5493 14.6429L25.1184 12.8954C24.3417 13.1339 23.533 13.2529 22.7201 13.2483C18.6449 13.2483 15.7344 10.4791 15.7344 6.62273C15.7344 2.76635 18.6477 0 22.7316 0C26.8155 0 29.6945 2.76066 29.6945 6.62273C29.7148 7.52985 29.5423 8.43101 29.1882 9.26723C28.8341 10.1035 28.3064 10.8559 27.6397 11.4752L30.2726 14.6429H26.5493ZM22.7316 10.0152C24.6605 10.0152 26.0571 8.59219 26.0571 6.62273C26.0571 4.65327 24.6519 3.2331 22.7316 3.2331C20.8113 3.2331 19.3832 4.65612 19.3832 6.62273C19.3832 8.58935 20.7913 10.0152 22.7316 10.0152Z" fill="#1D1D1B"/>
<path d="M38.6035 10.8804H34.1104L33.4064 12.9295H29.6631L34.6456 0.318726H38.0598L43.1481 12.9295H39.3018L38.6035 10.8804ZM36.3484 4.2548L34.9604 8.16241H37.7507L36.3484 4.2548Z" fill="#1D1D1B"/>
<path d="M53.6024 9.69358V12.9295H43.563V12.2066L48.2621 3.55467H43.8721V0.318726H53.3849V1.10423L48.7115 9.69358H53.6024Z" fill="#1D1D1B"/>
<path d="M53.0071 36.5232H56.3755V46.251H53.0071V36.5232ZM53.0328 32.4619H56.3497V35.308H53.0328V32.4619Z" fill="#274597"/>
<path d="M58.4219 39.7421H65.0556V42.7873H58.4219V39.7421Z" fill="#274597"/>
<path d="M80.0487 39.5116C80.0487 43.6383 77.3385 46.5697 73.3691 46.5697C69.4827 46.5697 66.6123 43.792 66.6123 39.9555C66.6123 36.1191 69.4312 33.3214 73.3376 33.3214C76.6603 33.3214 79.379 35.3905 79.9199 38.3191H76.2481C75.9913 37.7798 75.5812 37.3271 75.0685 37.0171C74.5558 36.707 73.9631 36.5531 73.3634 36.5744C71.4631 36.5744 70.1839 37.9405 70.1839 39.9555C70.1839 41.9705 71.4431 43.3167 73.3634 43.3167C74.697 43.3167 75.8389 42.6735 76.2253 41.703H73.1001V39.5116H80.0487Z" fill="#274597"/>
<path d="M86.5739 42.3917H85.3061V46.2509H81.8118V33.6401H87.3094C90.0425 33.6401 92.0229 35.4673 92.0229 38.1027C92.0374 38.8197 91.8595 39.5276 91.5073 40.1534C91.1552 40.7793 90.6416 41.3004 90.0196 41.6631L92.538 46.2509H88.6287L86.5739 42.3917ZM85.3061 39.466H86.903C87.8789 39.466 88.4398 38.8968 88.4398 38.0942C88.4398 37.2916 87.8675 36.7281 86.903 36.7281H85.3061V39.466Z" fill="#274597"/>
<path d="M100.288 46.5697C96.2096 46.5697 93.302 43.8005 93.302 39.947C93.302 36.0935 96.1953 33.3214 100.288 33.3214C104.38 33.3214 107.251 36.0821 107.251 39.947C107.251 43.8119 104.337 46.5697 100.288 46.5697ZM100.288 43.3366C102.217 43.3366 103.613 41.9136 103.613 39.947C103.613 37.9804 102.217 36.5545 100.288 36.5545C98.3589 36.5545 96.9394 37.9775 96.9394 39.947C96.9394 41.9165 98.356 43.3366 100.288 43.3366Z" fill="#274597"/>
<path d="M108.888 41.3728V33.6401H112.459V41.3074C112.459 42.5397 113.258 43.3366 114.423 43.3366C115.587 43.3366 116.389 42.5397 116.389 41.3074V33.6401H119.957V41.3728C119.957 44.475 117.668 46.5697 114.423 46.5697C111.177 46.5697 108.888 44.475 108.888 41.3728Z" fill="#274597"/>
<path d="M132.378 38.1966C132.378 40.8406 130.374 42.7674 127.681 42.7674H125.784V46.2509H122.284V33.6401H127.681C130.377 33.6401 132.378 35.5527 132.378 38.1966ZM128.789 38.1966C128.801 37.9937 128.77 37.7905 128.697 37.6004C128.625 37.4102 128.513 37.2373 128.37 37.0928C128.226 36.9484 128.053 36.8357 127.862 36.7621C127.672 36.6885 127.468 36.6555 127.264 36.6655H125.784V39.725H127.264C127.467 39.7348 127.67 39.7021 127.859 39.6292C128.049 39.5562 128.221 39.4446 128.365 39.3014C128.509 39.1582 128.621 38.9867 128.694 38.7979C128.767 38.6091 128.799 38.4072 128.789 38.2052V38.1966Z" fill="#274597"/>
</g>
<defs>
<clipPath id="clip0_499_4300">
<rect width="139" height="52" fill="white"/>
</clipPath>
</defs>
</svg>
