<svg width="55" height="55" viewBox="0 0 55 55" fill="none" xmlns="http://www.w3.org/2000/svg">
<path d="M37.3438 27.5176C37.3452 29.4036 36.7871 31.2477 35.7402 32.8165C34.6934 34.3853 33.2048 35.6084 31.4627 36.3311C29.7206 37.0537 27.8033 37.2435 25.9534 36.8764C24.1035 36.5092 22.4039 35.6017 21.0699 34.2685C19.7358 32.9354 18.827 31.2365 18.4586 29.3868C18.0902 27.5371 18.2786 25.6197 19 23.8771C19.7215 22.1346 20.9435 20.6451 22.5116 19.5971C24.0797 18.5492 25.9233 17.9898 27.8094 17.9898C29.0611 17.9889 30.3008 18.2347 31.4575 18.7131C32.6143 19.1916 33.6654 19.8932 34.5509 20.7781C35.4363 21.6629 36.1387 22.7135 36.6179 23.8699C37.0972 25.0263 37.3438 26.2658 37.3438 27.5176V27.5176Z" stroke="white" stroke-width="0.896099" stroke-miterlimit="10"/>
<path d="M48.338 5.94443V1.07007H6.5443C5.16924 1.07184 3.8511 1.61933 2.87941 2.59227C1.90772 3.56522 1.36194 4.88406 1.36194 6.25913V48.7759C1.36194 50.151 1.90772 51.4698 2.87941 52.4427C3.8511 53.4157 5.16924 53.9632 6.5443 53.9649H48.3447V48.6085C47.848 48.6067 47.3721 48.4086 47.0209 48.0574C46.6697 47.7062 46.4717 47.2304 46.4699 46.7337V41.8795C46.4699 41.3823 46.6674 40.9054 47.019 40.5538C47.3706 40.2022 47.8474 40.0047 48.3447 40.0047V40.0047V14.5616C47.8474 14.5616 47.3706 14.3641 47.019 14.0125C46.6674 13.6609 46.4699 13.1841 46.4699 12.6869V7.82588C46.4699 7.3292 46.6663 6.85266 47.0162 6.50021C47.3662 6.14775 47.8413 5.94797 48.338 5.94443V5.94443ZM35.2816 38.612C33.0723 40.0971 30.4714 40.8918 27.8094 40.8952C27.3509 40.8942 26.8928 40.8696 26.4368 40.8216C24.7617 40.6515 23.1345 40.1629 21.6428 39.382C18.866 37.9399 16.6818 35.571 15.4695 32.6865C14.9134 31.3619 14.5787 29.9549 14.4785 28.5218C14.4517 28.2005 14.4384 27.8724 14.4384 27.5376C14.4359 26.1753 14.6414 24.8206 15.0477 23.5203C15.4767 22.1468 16.1281 20.853 16.976 19.6904C17.9581 18.3231 19.1893 17.1533 20.605 16.2422C22.7553 14.8762 25.2485 14.1473 27.796 14.1398C28.3897 14.1412 28.9825 14.1837 29.5703 14.267C31.0048 14.4499 32.3988 14.8708 33.6948 15.5124C35.863 16.5745 37.7028 18.2043 39.0185 20.2286C40.3342 22.2529 41.0767 24.596 41.167 27.0086C41.167 27.176 41.167 27.3434 41.167 27.5175C41.1677 30.483 40.1806 33.3642 38.3616 35.7062C37.4964 36.8328 36.4566 37.8138 35.2816 38.612V38.612Z" stroke="white" stroke-width="0.896099" stroke-miterlimit="10"/>
<path d="M54.2568 6.25917V48.7759C54.2568 50.151 53.711 51.4699 52.7393 52.4428C51.7676 53.4157 50.4495 53.9632 49.0744 53.965H48.3513V48.6086C48.8468 48.605 49.321 48.4062 49.6707 48.0552C50.0205 47.7041 50.2176 47.2293 50.2194 46.7338V41.8795C50.2231 41.6308 50.1763 41.3839 50.082 41.1538C49.9876 40.9236 49.8476 40.715 49.6704 40.5404C49.4944 40.365 49.2855 40.2262 49.0557 40.132C48.8259 40.0377 48.5796 39.99 48.3312 39.9914V14.5483C48.8268 14.5447 49.3009 14.3459 49.6506 13.9949C50.0004 13.6439 50.1976 13.169 50.1993 12.6735V7.82593C50.2007 7.57753 50.1529 7.33131 50.0587 7.10147C49.9645 6.87163 49.8257 6.66273 49.6503 6.48682C49.2933 6.13507 48.8123 5.93785 48.3112 5.93778V1.07012H49.0343C49.7185 1.0657 50.3969 1.19666 51.0303 1.45546C51.6638 1.71426 52.2398 2.09578 52.7252 2.57807C53.2106 3.06036 53.5958 3.63388 53.8586 4.26564C54.1215 4.8974 54.2568 5.57491 54.2568 6.25917V6.25917Z" stroke="white" stroke-width="0.896099" stroke-miterlimit="10"/>
<path d="M37.3438 27.5176C37.3452 29.4036 36.7871 31.2477 35.7402 32.8165C34.6934 34.3853 33.2048 35.6084 31.4627 36.3311C29.7206 37.0537 27.8033 37.2435 25.9534 36.8764C24.1035 36.5092 22.4039 35.6017 21.0699 34.2685C19.7358 32.9354 18.827 31.2365 18.4586 29.3868C18.0902 27.5371 18.2786 25.6197 19 23.8771C19.7215 22.1346 20.9435 20.6451 22.5116 19.5971C24.0797 18.5492 25.9233 17.9898 27.8094 17.9898C29.0611 17.9889 30.3008 18.2347 31.4575 18.7131C32.6143 19.1916 33.6654 19.8932 34.5509 20.7781C35.4363 21.6629 36.1387 22.7135 36.6179 23.8699C37.0972 25.0263 37.3438 26.2658 37.3438 27.5176V27.5176Z" stroke="white" stroke-width="0.896099" stroke-miterlimit="10"/>
<path d="M41.1804 27.0087C41.0866 24.597 40.3426 22.2554 39.0273 20.2317C37.7119 18.208 35.8741 16.5775 33.7082 15.5125C32.4122 14.8709 31.0182 14.45 29.5837 14.2671C28.9959 14.1838 28.4031 14.1413 27.8094 14.1399C25.2574 14.1448 22.7591 14.8739 20.605 16.2423C19.1893 17.1534 17.9582 18.3232 16.976 19.6905C16.1275 20.8551 15.476 22.1512 15.0477 23.5271C14.6414 24.8274 14.4359 26.1821 14.4384 27.5444C14.4384 27.8792 14.4518 28.2073 14.4785 28.5286C14.5787 29.9617 14.9135 31.3687 15.4695 32.6933C16.6818 35.5778 18.866 37.9467 21.6428 39.3888C23.1345 40.1697 24.7617 40.6583 26.4368 40.8284C26.8928 40.8764 27.3509 40.901 27.8094 40.902C30.4714 40.8987 33.0724 40.1039 35.2816 38.6188C36.4638 37.8223 37.5104 36.8412 38.3817 35.713C40.2007 33.371 41.1878 30.4898 41.1871 27.5243C41.1871 27.3435 41.1804 27.1761 41.1804 27.0087ZM27.7893 37.0521C25.9063 37.0468 24.0671 36.4837 22.504 35.4338C20.9408 34.384 19.7238 32.8945 19.0066 31.1535C18.2893 29.4124 18.1041 27.4979 18.4742 25.6516C18.8443 23.8054 19.7532 22.1102 21.086 20.7801C22.4189 19.45 24.116 18.5447 25.963 18.1785C27.8101 17.8123 29.7242 18.0016 31.4637 18.7225C33.2033 19.4433 34.6902 20.6635 35.7367 22.2289C36.7833 23.7942 37.3425 25.6346 37.3439 27.5176C37.3421 30.0452 36.3368 32.4686 34.5489 34.2552C32.7611 36.0418 30.3369 37.0454 27.8094 37.0454L27.7893 37.0521Z" stroke="white" stroke-width="0.896099" stroke-miterlimit="10"/>
<path d="M29.5838 14.267C28.996 14.1837 28.4031 14.1412 27.8094 14.1398C26.7212 14.1396 25.6372 14.2746 24.5822 14.5415L24.455 13.0618C24.4209 12.7315 24.453 12.3977 24.5495 12.0799C24.6459 11.7621 24.8048 11.4668 25.0168 11.2112C25.2288 10.9556 25.4896 10.7448 25.784 10.5912C26.0784 10.4376 26.4005 10.3442 26.7315 10.3166C27.3911 10.2653 28.0454 10.469 28.5593 10.8857C29.0665 11.3169 29.3839 11.9301 29.4432 12.5931L29.5838 14.267Z" stroke="white" stroke-width="0.896099" stroke-miterlimit="10"/>
<path d="M38.6829 17.1594L37.7255 18.4986C36.5893 17.2488 35.226 16.2263 33.7081 15.4856L34.5652 14.2603C34.8499 13.8546 35.2483 13.5423 35.7101 13.3627C36.172 13.1831 36.6767 13.1441 37.1607 13.2508C37.6447 13.3575 38.0862 13.605 38.4298 13.9622C38.7734 14.3193 39.0035 14.7702 39.0914 15.2579C39.1517 15.5861 39.1466 15.9231 39.0765 16.2493C39.0065 16.5756 38.8727 16.8849 38.6829 17.1594Z" stroke="white" stroke-width="0.896099" stroke-miterlimit="10"/>
<path d="M44.3474 25.4016C44.0124 25.9736 43.4668 26.3917 42.8275 26.5667L41.1804 27.0086C41.1182 25.3228 40.7365 23.6642 40.0555 22.1208L41.5286 21.7258C42.0072 21.5996 42.5125 21.6177 42.9809 21.7778C43.4493 21.9379 43.8599 22.2329 44.1611 22.6258C44.4623 23.0186 44.6407 23.4916 44.6739 23.9855C44.707 24.4794 44.5934 24.9721 44.3474 25.4016V25.4016Z" stroke="white" stroke-width="0.896099" stroke-miterlimit="10"/>
<path d="M43.2827 35.2308C43.1453 35.5291 42.9504 35.7974 42.7091 36.0203C42.4678 36.2432 42.1849 36.4163 41.8767 36.5297C41.2497 36.7555 40.559 36.7242 39.955 36.4427L38.3816 35.7062C39.4203 34.3776 40.1932 32.8613 40.6581 31.2402L42.0775 31.9098C42.3748 32.0486 42.6418 32.2447 42.8632 32.4868C43.0847 32.7288 43.2563 33.0122 43.3682 33.3206C43.4801 33.629 43.5302 33.9564 43.5155 34.2842C43.5009 34.612 43.4218 34.9336 43.2827 35.2308V35.2308Z" stroke="white" stroke-width="0.896099" stroke-miterlimit="10"/>
<path d="M34.746 43.3792C34.1436 43.6575 33.4562 43.6887 32.831 43.4663C32.5212 43.3543 32.2367 43.1818 31.9941 42.9587C31.7516 42.7357 31.5558 42.4667 31.4183 42.1673L30.6818 40.5805C32.3271 40.2254 33.8888 39.5571 35.2816 38.612L35.9512 40.0515C36.2304 40.653 36.2604 41.3404 36.0346 41.9638C35.8088 42.5873 35.3455 43.0961 34.746 43.3792V43.3792Z" stroke="white" stroke-width="0.896099" stroke-miterlimit="10"/>
<path d="M26.4368 40.8216L26.0284 42.3548C25.9436 42.6728 25.7971 42.9709 25.5971 43.2322C25.3971 43.4934 25.1476 43.7127 24.8628 43.8775C24.578 44.0423 24.2635 44.1493 23.9373 44.1925C23.6112 44.2357 23.2797 44.2142 22.9618 44.1292C22.6431 44.0461 22.344 43.9005 22.0821 43.7008C21.8202 43.5011 21.6006 43.2513 21.4361 42.9659C21.2716 42.6805 21.1655 42.3653 21.1239 42.0385C21.0824 41.7118 21.1063 41.38 21.1942 41.0626L21.6428 39.382C23.1345 40.1628 24.7617 40.6514 26.4368 40.8216V40.8216Z" stroke="white" stroke-width="0.896099" stroke-miterlimit="10"/>
<path d="M18.228 36.8444L16.9425 37.7684C16.6743 37.9731 16.3675 38.1215 16.0405 38.2047C15.7135 38.2879 15.3731 38.3041 15.0397 38.2524C14.7063 38.2008 14.3868 38.0822 14.1003 37.904C13.8138 37.7258 13.5663 37.4915 13.3727 37.2152C13.179 36.9389 13.0432 36.6264 12.9733 36.2963C12.9035 35.9662 12.901 35.6254 12.9662 35.2944C13.0313 34.9633 13.1627 34.6489 13.3524 34.3698C13.5421 34.0908 13.7862 33.853 14.0701 33.6707L15.4695 32.6932C16.122 34.2369 17.0576 35.6449 18.228 36.8444V36.8444Z" stroke="white" stroke-width="0.896099" stroke-miterlimit="10"/>
<path d="M14.4384 27.5175C14.4384 27.8522 14.4518 28.1803 14.4785 28.5017L12.952 28.3678C12.6182 28.3479 12.2918 28.2614 11.992 28.1133C11.6922 27.9652 11.4251 27.7586 11.2065 27.5057C10.9878 27.2527 10.822 26.9585 10.7189 26.6404C10.6158 26.3224 10.5774 25.9869 10.606 25.6538C10.6346 25.3206 10.7297 24.9966 10.8855 24.7008C11.0414 24.405 11.2549 24.1434 11.5135 23.9314C11.7721 23.7194 12.0705 23.5614 12.3912 23.4666C12.7118 23.3719 13.0482 23.3423 13.3805 23.3796L15.0477 23.5202C14.6434 24.8141 14.438 26.1619 14.4384 27.5175V27.5175Z" stroke="white" stroke-width="0.896099" stroke-miterlimit="10"/>
<path d="M20.6049 16.2422C19.1892 17.1533 17.9581 18.3231 16.9759 19.6904L15.918 18.6191C15.4483 18.1494 15.1844 17.5124 15.1844 16.8482C15.1844 16.1839 15.4483 15.5469 15.918 15.0772C16.3877 14.6075 17.0247 14.3436 17.689 14.3436C18.3532 14.3436 18.9903 14.6075 19.46 15.0772L20.6049 16.2422Z" stroke="white" stroke-width="0.896099" stroke-miterlimit="10"/>
<path d="M50.2194 7.82591V12.6735C50.2176 13.169 50.0205 13.6438 49.6707 13.9948C49.3209 14.3459 48.8468 14.5447 48.3513 14.5482V14.5482C47.8541 14.5482 47.3772 14.3507 47.0257 13.9991C46.6741 13.6476 46.4766 13.1707 46.4766 12.6735V7.82591C46.4766 7.32807 46.6739 6.85053 47.0253 6.49788C47.3766 6.14523 47.8535 5.94623 48.3513 5.94446V5.94446C48.8525 5.94453 49.3335 6.14174 49.6904 6.49349C50.0357 6.85042 50.2258 7.32937 50.2194 7.82591V7.82591Z" stroke="white" stroke-width="0.896099" stroke-miterlimit="10"/>
<path d="M50.2194 41.8593V46.7136C50.2176 47.2091 50.0205 47.684 49.6707 48.035C49.3209 48.386 48.8468 48.5849 48.3513 48.5884V48.5884C47.8546 48.5866 47.3788 48.3885 47.0276 48.0373C46.6764 47.6861 46.4783 47.2103 46.4766 46.7136V41.8593C46.4766 41.3621 46.6741 40.8853 47.0257 40.5337C47.3772 40.1821 47.8541 39.9846 48.3513 39.9846V39.9846C48.5997 39.9832 48.8459 40.031 49.0758 40.1252C49.3056 40.2194 49.5145 40.3582 49.6904 40.5336C49.8624 40.7083 49.9978 40.9155 50.0886 41.1431C50.1794 41.3708 50.2239 41.6143 50.2194 41.8593V41.8593Z" stroke="white" stroke-width="0.896099" stroke-miterlimit="10"/>
</svg>
